<?xml version="1.0" encoding="UTF-8" standalone="no"?> <!-- Created with Vectornator for iOS (http://vectornator.io/) --><!DOCTYPE svg PUBLIC "-//W3C//DTD SVG 1.1//EN" "http://www.w3.org/Graphics/SVG/1.1/DTD/svg11.dtd">
<svg style="fill-rule:evenodd;clip-rule:evenodd;stroke-linecap:round;stroke-linejoin:round;"
     xmlns:vectornator="http://vectornator.io"
     xmlns="http://www.w3.org/2000/svg" xml:space="preserve" version="1.1" viewBox="0 0 512 512">
<metadata>
<vectornator:setting key="DynamicGuides" value="1"/>
<vectornator:setting key="Units" value="Points"/>
<vectornator:setting key="GuidesVisible" value="1"/>
<vectornator:setting key="RulersVisible" value="1"/>
<vectornator:setting key="SnapToGuides" value="1"/>
<vectornator:setting key="GridSpacing" value="36"/>
</metadata>
<defs/>
<g id="layer3" vectornator:layerName="layer3">
<g opacity="1">
<path d="M70.6381+465.851L70.6381+228.465L244.415+268.03L244.415+505.415M267.585+268.03L267.585+505.415L441.362+465.851L441.362+228.465M395.021+218.535L395.021+188.901L256+248.248L116.979+188.901L116.979+218.536L256+250.199" opacity="1" fill="#ffffff"/>
<path d="M368.617+39.946C357.873+22.7803+336.896+12.9362+311.043+12.9362C292.557+12.9362+276.007+20.7264+262.442+30.5921C250.341+17.7285+226.971+5.98201+202.01+6.60897C185.895+7.01253+163.028+12.7489+145.63+37.8201C136.664+50.7341+133.918+64.3759+137.459+78.3709C144.159+104.847+172.196+124.521+183.982+131.778L183.982+197.306C183.982+202.653+188.498+206.985+194.058+206.985L327.278+206.985C332.845+206.985+337.354+202.653+337.354+197.306L337.354+126.805C349.508+120.947+359.734+112.875+365.841+101.842C378.407+79.1492+379.39+57.1695+368.617+39.946M348.053+92.7622C331.36+122.921+260.124+124.139+234.076+122.071C228.554+121.595+223.662+125.588+223.205+130.913C222.74+136.239+226.858+140.923+232.403+141.363C233.521+141.456+241.12+142.026+252.247+142.026C266.826+142.026+287.457+141.029+307.492+136.677C310.757+135.968+314.006+135.169+317.21+134.271L317.21+187.635L204.133+187.635L204.133+126.337C204.133+122.828+202.145+119.585+198.949+117.877C198.597+117.689+163.268+98.5273+157.033+73.7659C154.858+65.1398+156.613+56.8884+162.39+48.565C172.518+33.9791+186.015+26.3763+202.528+25.9655C220.511+25.562+238.652+34.1593+247.363+43.3907C233.626+56.7443+225.328+69.6655+224.63+70.7825C221.749+75.3442+223.265+81.2823+228.014+84.064C232.763+86.8385+238.96+85.3972+241.856+80.8283C242.163+80.3454+273.103+32.3072+311.051+32.3072C329.657+32.3072+344.346+38.7354+351.354+49.927C358.331+61.0826+357.16+76.2954+348.053+92.7622" opacity="1" fill="#ffffff"/>
</g>
</g>
</svg>
