<?xml version="1.0" standalone="no"?>
<!DOCTYPE svg PUBLIC "-//W3C//DTD SVG 20010904//EN"
 "http://www.w3.org/TR/2001/REC-SVG-20010904/DTD/svg10.dtd">
<svg version="1.0" xmlns="http://www.w3.org/2000/svg"
 width="700.000000pt" height="700.000000pt" viewBox="0 0 700.000000 700.000000"
 preserveAspectRatio="xMidYMid meet">
<metadata>
Created by potrace 1.11, written by Peter Selinger 2001-2013
</metadata>
<g transform="translate(0.000000,700.000000) scale(0.100000,-0.100000)"
fill="#000000" stroke="none">
<path d="M2655 6903 c-208 -30 -403 -131 -552 -285 -252 -262 -309 -559 -163
-848 63 -124 204 -291 340 -402 65 -53 206 -155 223 -161 9 -3 12 -124 12
-473 l1 -470 23 -33 c46 -64 -2 -61 1027 -61 1040 0 982 -4 1025 66 21 34 21
43 21 533 l0 498 37 18 c219 114 356 276 440 521 67 193 65 403 -4 559 -94
212 -292 365 -550 425 -317 73 -588 24 -868 -156 -75 -49 -90 -52 -109 -26
-20 28 -114 99 -189 143 -83 48 -221 102 -332 130 -79 20 -306 33 -382 22z
m282 -273 c142 -28 307 -102 392 -177 l51 -45 -76 -81 c-90 -97 -221 -268
-241 -314 -18 -44 -16 -72 7 -110 24 -40 60 -64 104 -70 63 -8 96 16 189 139
170 227 384 418 562 502 33 15 67 32 75 36 43 21 165 43 245 44 125 1 201 -9
286 -39 285 -99 398 -333 299 -620 -70 -202 -166 -310 -358 -400 -126 -60
-354 -120 -522 -140 -30 -3 -66 -8 -80 -10 -75 -12 -223 -19 -455 -20 -143 -1
-268 -3 -277 -3 -27 -3 -77 -61 -84 -97 -9 -51 15 -104 60 -134 l40 -26 285 0
c282 0 446 9 551 30 14 3 45 7 70 10 25 3 94 17 155 30 60 14 113 25 116 25
11 0 6 -719 -5 -723 -6 -2 -353 -3 -771 -3 l-760 1 -5 440 c-5 484 -4 472 -68
512 -15 9 -58 37 -97 61 -325 209 -507 462 -488 678 13 143 148 329 311 427
136 83 316 111 489 77z"/>
<path d="M1598 4397 c-2 -12 -2 -103 0 -203 l3 -180 47 -12 c43 -11 435 -100
747 -171 72 -16 202 -45 290 -66 88 -20 167 -38 175 -40 8 -2 156 -35 329 -74
l315 -72 70 16 c39 9 118 27 176 41 58 14 132 31 165 39 75 17 773 176 794
180 9 2 88 20 176 40 88 20 167 38 175 40 8 2 33 8 55 13 22 6 51 13 65 16 58
11 215 47 217 50 2 2 2 93 1 203 l-3 199 -210 -89 c-115 -49 -228 -98 -250
-108 -22 -9 -211 -90 -420 -179 -209 -89 -398 -170 -420 -180 -22 -10 -76 -32
-120 -50 -44 -18 -84 -37 -89 -41 -6 -5 -16 -9 -23 -9 -6 0 -40 -13 -75 -29
-88 -42 -278 -121 -288 -121 -5 0 -289 120 -632 266 -343 147 -733 314 -868
371 -135 58 -258 111 -275 118 -16 7 -51 22 -77 33 l-47 20 -3 -21z"/>
<path d="M965 2259 c1 -890 4 -1621 7 -1624 5 -5 387 -96 468 -111 14 -3 63
-14 110 -25 47 -11 96 -23 110 -25 14 -3 33 -7 42 -10 10 -3 28 -7 40 -10 39
-7 61 -12 128 -28 102 -24 322 -74 350 -80 14 -2 63 -14 110 -25 47 -11 96
-22 110 -25 14 -2 77 -17 140 -31 63 -15 122 -28 130 -30 34 -7 394 -90 505
-116 66 -15 121 -26 123 -24 4 4 5 3235 0 3240 -2 2 -360 86 -433 101 -11 2
-117 26 -235 53 -118 27 -278 63 -355 80 -77 18 -198 46 -270 62 -71 17 -141
33 -155 36 -14 2 -43 9 -65 15 -22 5 -51 12 -65 14 -14 3 -33 7 -42 10 -9 3
-25 6 -35 8 -10 3 -48 11 -84 20 -37 8 -78 17 -90 20 -45 9 -443 99 -529 119
-13 3 -15 -181 -15 -1614z"/>
<path d="M5870 3839 c-91 -21 -176 -41 -190 -43 -53 -11 -607 -136 -645 -146
-22 -6 -49 -12 -60 -14 -11 -3 -72 -16 -135 -31 -63 -14 -205 -46 -315 -71
-110 -25 -245 -56 -300 -69 -55 -13 -111 -26 -125 -28 -42 -8 -435 -99 -438
-102 -3 -3 -3 -3237 0 -3241 2 -1 48 8 103 22 55 13 114 26 130 29 17 3 70 15
118 26 49 12 94 22 100 23 7 2 23 6 37 9 14 4 147 34 295 67 322 73 581 132
726 166 58 13 114 26 125 28 10 2 111 25 224 51 113 26 214 48 225 51 47 9 65
13 155 34 52 12 104 25 115 29 19 8 20 23 20 1629 0 892 0 1622 0 1621 0 0
-74 -18 -165 -40z"/>
</g>
</svg>
